   -1
   100
<NULL>
4.41,
   -1
   -1
   450
1,
STEP:1 Time: 1.00000e+00
0,3,
 1.00000e+00,
1,
<NULL>
   -1
   -1
   451
1, 101,1,
DISP-node-1
0.,-1.,0.,
101,0,0,0,0,0,0,0,0,0,
0,0,0,0,0,0,0,0,0,0,
0,0,3,7,
0,1,1,
8,   0.00000e+00,
55,   0.00000e+00,
56,   0.00000e+00,
98,   0.00000e+00,
99,   0.00000e+00,
100,   0.00000e+00,
107,   0.00000e+00,
108,   0.00000e+00,
109,   0.00000e+00,
113,   0.00000e+00,
114,   0.00000e+00,
115,   0.00000e+00,
1008,   0.00000e+00,
1055,   0.00000e+00,
1056,   0.00000e+00,
1098,   0.00000e+00,
1099,   0.00000e+00,
1100,   0.00000e+00,
1107,   0.00000e+00,
1108,   0.00000e+00,
1109,   0.00000e+00,
1113,   0.00000e+00,
1114,   0.00000e+00,
1115,   0.00000e+00,
2056,  -7.61524e-05,
2067,  -7.23448e-05,
2068,  -6.85372e-05,
2098,  -8.36401e-04,
2099,  -5.83201e-04,
2100,  -3.29713e-04,
2101,  -2.97133e-04,
2102,  -5.25275e-04,
2103,  -7.52761e-04,
2104,  -7.94581e-04,
2105,  -5.54238e-04,
2106,  -3.13423e-04,
3056,  -7.61524e-05,
3067,  -7.23448e-05,
3068,  -6.85372e-05,
3098,  -8.36401e-04,
3099,  -5.83201e-04,
3100,  -3.29713e-04,
3101,  -2.97133e-04,
3102,  -5.25275e-04,
3103,  -7.52761e-04,
3104,  -7.94581e-04,
3105,  -5.54238e-04,
3106,  -3.13423e-04,
-1,0.,
1, 102,1,
DISP-node-2
0.,-1.,0.,
102,0,0,0,0,0,0,0,0,0,
0,0,0,0,0,0,0,0,0,0,
0,0,3,7,
0,1,1,
8,   0.00000e+00,
55,   0.00000e+00,
56,   0.00000e+00,
98,   0.00000e+00,
99,   0.00000e+00,
100,   0.00000e+00,
107,   0.00000e+00,
108,   0.00000e+00,
109,   0.00000e+00,
113,   0.00000e+00,
114,   0.00000e+00,
115,   0.00000e+00,
1008,   0.00000e+00,
1055,   0.00000e+00,
1056,   0.00000e+00,
1098,   0.00000e+00,
1099,   0.00000e+00,
1100,   0.00000e+00,
1107,   0.00000e+00,
1108,   0.00000e+00,
1109,   0.00000e+00,
1113,   0.00000e+00,
1114,   0.00000e+00,
1115,   0.00000e+00,
2056,   8.72620e-03,
2067,   8.28989e-03,
2068,   7.85358e-03,
2098,   8.68636e-03,
2099,   8.70703e-03,
2100,   8.72030e-03,
2101,   7.84826e-03,
2102,   7.83634e-03,
2103,   7.81772e-03,
2104,   8.25204e-03,
2105,   8.27168e-03,
2106,   8.28428e-03,
3056,   8.72620e-03,
3067,   8.28989e-03,
3068,   7.85358e-03,
3098,   8.68636e-03,
3099,   8.70703e-03,
3100,   8.72030e-03,
3101,   7.84826e-03,
3102,   7.83634e-03,
3103,   7.81772e-03,
3104,   8.25204e-03,
3105,   8.27168e-03,
3106,   8.28428e-03,
-1,0.,
1, 103,1,
DISP-node-3
0.,-1.,0.,
103,0,0,0,0,0,0,0,0,0,
0,0,0,0,0,0,0,0,0,0,
0,0,3,7,
0,1,1,
8,   0.00000e+00,
55,   0.00000e+00,
56,   0.00000e+00,
98,   0.00000e+00,
99,   0.00000e+00,
100,   0.00000e+00,
107,   0.00000e+00,
108,   0.00000e+00,
109,   0.00000e+00,
113,   0.00000e+00,
114,   0.00000e+00,
115,   0.00000e+00,
1008,   0.00000e+00,
1055,   0.00000e+00,
1056,   0.00000e+00,
1098,   0.00000e+00,
1099,   0.00000e+00,
1100,   0.00000e+00,
1107,   0.00000e+00,
1108,   0.00000e+00,
1109,   0.00000e+00,
1113,   0.00000e+00,
1114,   0.00000e+00,
1115,   0.00000e+00,
2056,   0.00000e+00,
2067,   0.00000e+00,
2068,   0.00000e+00,
2098,   0.00000e+00,
2099,   0.00000e+00,
2100,   0.00000e+00,
2101,   0.00000e+00,
2102,   0.00000e+00,
2103,   0.00000e+00,
2104,   0.00000e+00,
2105,   0.00000e+00,
2106,   0.00000e+00,
3056,   0.00000e+00,
3067,   0.00000e+00,
3068,   0.00000e+00,
3098,   0.00000e+00,
3099,   0.00000e+00,
3100,   0.00000e+00,
3101,   0.00000e+00,
3102,   0.00000e+00,
3103,   0.00000e+00,
3104,   0.00000e+00,
3105,   0.00000e+00,
3106,   0.00000e+00,
-1,0.,
1, 104,1,
DISP-node-4
0.,-1.,0.,
101,102,103,0,0,0,0,0,0,0,
0,0,0,0,0,0,0,0,0,0,
0,0,3,7,
1,1,1,
8,   0.00000e+00,
55,   0.00000e+00,
56,   0.00000e+00,
98,   0.00000e+00,
99,   0.00000e+00,
100,   0.00000e+00,
107,   0.00000e+00,
108,   0.00000e+00,
109,   0.00000e+00,
113,   0.00000e+00,
114,   0.00000e+00,
115,   0.00000e+00,
1008,   0.00000e+00,
1055,   0.00000e+00,
1056,   0.00000e+00,
1098,   0.00000e+00,
1099,   0.00000e+00,
1100,   0.00000e+00,
1107,   0.00000e+00,
1108,   0.00000e+00,
1109,   0.00000e+00,
1113,   0.00000e+00,
1114,   0.00000e+00,
1115,   0.00000e+00,
2056,   8.72654e-03,
2067,   8.29021e-03,
2068,   7.85388e-03,
2098,   8.72654e-03,
2099,   8.72654e-03,
2100,   8.72654e-03,
2101,   7.85388e-03,
2102,   7.85392e-03,
2103,   7.85388e-03,
2104,   8.29021e-03,
2105,   8.29023e-03,
2106,   8.29021e-03,
3056,   8.72654e-03,
3067,   8.29021e-03,
3068,   7.85388e-03,
3098,   8.72654e-03,
3099,   8.72654e-03,
3100,   8.72654e-03,
3101,   7.85388e-03,
3102,   7.85392e-03,
3103,   7.85388e-03,
3104,   8.29021e-03,
3105,   8.29023e-03,
3106,   8.29021e-03,
-1,0.,
   -1
