    -1
   151
<NULL>
<NULL>

<NULL>
<NULL>
EMSolution
Mon May 18 17:37:39 2026
    -1
    -1
    55
DISP - DX, DY, DZ, - NODAL
Node Data



         1         4         3         8         2         6
         2         1        10         1
  1.00000e+00
         8         6
  0.00000e+00  0.00000e+00  0.00000e+00  0.00000e+00  0.00000e+00  0.00000e+00
        55         6
  0.00000e+00  0.00000e+00  0.00000e+00  0.00000e+00  0.00000e+00  0.00000e+00
        56         6
  0.00000e+00  0.00000e+00  0.00000e+00  0.00000e+00  0.00000e+00  0.00000e+00
        98         6
  0.00000e+00  0.00000e+00  0.00000e+00  0.00000e+00  0.00000e+00  0.00000e+00
        99         6
  0.00000e+00  0.00000e+00  0.00000e+00  0.00000e+00  0.00000e+00  0.00000e+00
       100         6
  0.00000e+00  0.00000e+00  0.00000e+00  0.00000e+00  0.00000e+00  0.00000e+00
       107         6
  0.00000e+00  0.00000e+00  0.00000e+00  0.00000e+00  0.00000e+00  0.00000e+00
       108         6
  0.00000e+00  0.00000e+00  0.00000e+00  0.00000e+00  0.00000e+00  0.00000e+00
       109         6
  0.00000e+00  0.00000e+00  0.00000e+00  0.00000e+00  0.00000e+00  0.00000e+00
       113         6
  0.00000e+00  0.00000e+00  0.00000e+00  0.00000e+00  0.00000e+00  0.00000e+00
       114         6
  0.00000e+00  0.00000e+00  0.00000e+00  0.00000e+00  0.00000e+00  0.00000e+00
       115         6
  0.00000e+00  0.00000e+00  0.00000e+00  0.00000e+00  0.00000e+00  0.00000e+00
      1008         6
  0.00000e+00  0.00000e+00  0.00000e+00  0.00000e+00  0.00000e+00  0.00000e+00
      1055         6
  0.00000e+00  0.00000e+00  0.00000e+00  0.00000e+00  0.00000e+00  0.00000e+00
      1056         6
  0.00000e+00  0.00000e+00  0.00000e+00  0.00000e+00  0.00000e+00  0.00000e+00
      1098         6
  0.00000e+00  0.00000e+00  0.00000e+00  0.00000e+00  0.00000e+00  0.00000e+00
      1099         6
  0.00000e+00  0.00000e+00  0.00000e+00  0.00000e+00  0.00000e+00  0.00000e+00
      1100         6
  0.00000e+00  0.00000e+00  0.00000e+00  0.00000e+00  0.00000e+00  0.00000e+00
      1107         6
  0.00000e+00  0.00000e+00  0.00000e+00  0.00000e+00  0.00000e+00  0.00000e+00
      1108         6
  0.00000e+00  0.00000e+00  0.00000e+00  0.00000e+00  0.00000e+00  0.00000e+00
      1109         6
  0.00000e+00  0.00000e+00  0.00000e+00  0.00000e+00  0.00000e+00  0.00000e+00
      1113         6
  0.00000e+00  0.00000e+00  0.00000e+00  0.00000e+00  0.00000e+00  0.00000e+00
      1114         6
  0.00000e+00  0.00000e+00  0.00000e+00  0.00000e+00  0.00000e+00  0.00000e+00
      1115         6
  0.00000e+00  0.00000e+00  0.00000e+00  0.00000e+00  0.00000e+00  0.00000e+00
      2056         6
 -7.61524e-05  8.72620e-03  0.00000e+00  0.00000e+00  0.00000e+00  0.00000e+00
      2067         6
 -7.23448e-05  8.28989e-03  0.00000e+00  0.00000e+00  0.00000e+00  0.00000e+00
      2068         6
 -6.85372e-05  7.85358e-03  0.00000e+00  0.00000e+00  0.00000e+00  0.00000e+00
      2098         6
 -8.36401e-04  8.68636e-03  0.00000e+00  0.00000e+00  0.00000e+00  0.00000e+00
      2099         6
 -5.83201e-04  8.70703e-03  0.00000e+00  0.00000e+00  0.00000e+00  0.00000e+00
      2100         6
 -3.29713e-04  8.72030e-03  0.00000e+00  0.00000e+00  0.00000e+00  0.00000e+00
      2101         6
 -2.97133e-04  7.84826e-03  0.00000e+00  0.00000e+00  0.00000e+00  0.00000e+00
      2102         6
 -5.25275e-04  7.83634e-03  0.00000e+00  0.00000e+00  0.00000e+00  0.00000e+00
      2103         6
 -7.52761e-04  7.81772e-03  0.00000e+00  0.00000e+00  0.00000e+00  0.00000e+00
      2104         6
 -7.94581e-04  8.25204e-03  0.00000e+00  0.00000e+00  0.00000e+00  0.00000e+00
      2105         6
 -5.54238e-04  8.27168e-03  0.00000e+00  0.00000e+00  0.00000e+00  0.00000e+00
      2106         6
 -3.13423e-04  8.28428e-03  0.00000e+00  0.00000e+00  0.00000e+00  0.00000e+00
      3056         6
 -7.61524e-05  8.72620e-03  0.00000e+00  0.00000e+00  0.00000e+00  0.00000e+00
      3067         6
 -7.23448e-05  8.28989e-03  0.00000e+00  0.00000e+00  0.00000e+00  0.00000e+00
      3068         6
 -6.85372e-05  7.85358e-03  0.00000e+00  0.00000e+00  0.00000e+00  0.00000e+00
      3098         6
 -8.36401e-04  8.68636e-03  0.00000e+00  0.00000e+00  0.00000e+00  0.00000e+00
      3099         6
 -5.83201e-04  8.70703e-03  0.00000e+00  0.00000e+00  0.00000e+00  0.00000e+00
      3100         6
 -3.29713e-04  8.72030e-03  0.00000e+00  0.00000e+00  0.00000e+00  0.00000e+00
      3101         6
 -2.97133e-04  7.84826e-03  0.00000e+00  0.00000e+00  0.00000e+00  0.00000e+00
      3102         6
 -5.25275e-04  7.83634e-03  0.00000e+00  0.00000e+00  0.00000e+00  0.00000e+00
      3103         6
 -7.52761e-04  7.81772e-03  0.00000e+00  0.00000e+00  0.00000e+00  0.00000e+00
      3104         6
 -7.94581e-04  8.25204e-03  0.00000e+00  0.00000e+00  0.00000e+00  0.00000e+00
      3105         6
 -5.54238e-04  8.27168e-03  0.00000e+00  0.00000e+00  0.00000e+00  0.00000e+00
      3106         6
 -3.13423e-04  8.28428e-03  0.00000e+00  0.00000e+00  0.00000e+00  0.00000e+00
    -1
