   -1
   100
<NULL>
4.41,
   -1
   -1
   450
1,
STEP:1 Time: 1.00000e+00
0,3,
 1.00000e+00,
1,
<NULL>
   -1
   -1
   451
1, 60031,1,
BMAG-elem-1
0.,-1.,0.,
60031,0,0,0,0,0,0,0,0,0,
0,0,0,0,0,0,0,0,0,0,
0,0,3,8,
0,1,1,
94,   1.02271e-14,
95,  -1.03085e-14,
96,   1.03628e-14,
97,   1.60199e-12,
98,  -1.63745e-12,
99,   1.63398e-12,
1089,   2.23022e-01,
1090,   2.90030e-01,
1091,   2.08601e-01,
1092,   7.25059e-01,
1093,   6.62892e-01,
1094,   7.53980e-01,
-1,0.,
1, 60032,1,
BMAG-elem-2
0.,-1.,0.,
60032,0,0,0,0,0,0,0,0,0,
0,0,0,0,0,0,0,0,0,0,
0,0,3,8,
0,1,1,
94,   7.42185e-16,
95,  -4.65576e-16,
96,   1.43216e-16,
97,   1.14337e-13,
98,  -5.61651e-14,
99,   4.29881e-14,
1089,   2.85870e-01,
1090,   4.42162e-02,
1091,  -2.31602e-01,
1092,   2.81699e-01,
1093,   4.06438e-02,
1094,  -1.91171e-01,
-1,0.,
1, 60033,1,
BMAG-elem-3
0.,-1.,0.,
60033,0,0,0,0,0,0,0,0,0,
0,0,0,0,0,0,0,0,0,0,
0,0,3,8,
0,1,1,
94,   0.00000e+00,
95,   0.00000e+00,
96,   0.00000e+00,
97,   0.00000e+00,
98,   0.00000e+00,
99,   0.00000e+00,
1089,   0.00000e+00,
1090,   0.00000e+00,
1091,   0.00000e+00,
1092,   0.00000e+00,
1093,   0.00000e+00,
1094,   0.00000e+00,
-1,0.,
1, 60034,1,
BMAG-elem-4
0.,-1.,0.,
60034,0,0,0,0,0,0,0,0,0,
0,0,0,0,0,0,0,0,0,0,
0,0,3,8,
0,1,1,
94,   1.02540e-14,
95,   1.03190e-14,
96,   1.03637e-14,
97,   1.60607e-12,
98,   1.63842e-12,
99,   1.63454e-12,
1089,   3.62574e-01,
1090,   2.93382e-01,
1091,   3.11695e-01,
1092,   7.77859e-01,
1093,   6.64137e-01,
1094,   7.77838e-01,
-1,0.,
1, 31,1,
BMAG-node-1
0.,-1.,0.,
31,0,0,0,0,0,0,0,0,0,
0,0,0,0,0,0,0,0,0,0,
0,0,3,7,
0,1,1,
8,   8.68143e-15,
55,   1.90447e-14,
56,   3.35334e-12,
98,   3.19742e-12,
99,   2.17095e-14,
100,  -3.19709e-14,
107,   8.44187e-15,
108,   1.73978e-17,
109,  -2.48095e-18,
113,  -2.24752e-14,
114,   2.77200e-14,
115,  -1.43260e-14,
1008,   8.68143e-15,
1055,   1.90447e-14,
1056,   3.35334e-12,
1098,   3.19742e-12,
1099,   2.17095e-14,
1100,  -3.19709e-14,
1107,   8.44187e-15,
1108,   1.73978e-17,
1109,  -2.48095e-18,
1113,  -2.24752e-14,
1114,   2.77200e-14,
1115,  -1.43260e-14,
2056,  -5.30788e-02,
2067,   4.93382e-01,
2068,   1.03913e+00,
2098,  -9.35366e-03,
2099,   4.80234e-02,
2100,   1.69327e-02,
2101,   9.33591e-01,
2102,   9.22497e-01,
2103,   9.91128e-01,
2104,   4.45674e-01,
2105,   4.82985e-01,
2106,   4.95868e-01,
3056,  -5.30788e-02,
3067,   4.93382e-01,
3068,   1.03913e+00,
3098,  -9.35366e-03,
3099,   4.80234e-02,
3100,   1.69327e-02,
3101,   9.33591e-01,
3102,   9.22497e-01,
3103,   9.91128e-01,
3104,   4.45674e-01,
3105,   4.82985e-01,
3106,   4.95868e-01,
-1,0.,
1, 32,1,
BMAG-node-2
0.,-1.,0.,
32,0,0,0,0,0,0,0,0,0,
0,0,0,0,0,0,0,0,0,0,
0,0,3,7,
0,1,1,
8,  -9.43141e-16,
55,  -4.74459e-13,
56,  -9.47975e-13,
98,   1.23133e-12,
99,  -9.53831e-13,
100,   9.85122e-13,
107,   1.68531e-15,
108,  -9.52015e-16,
109,   9.25883e-16,
113,   4.74305e-13,
114,  -4.76402e-13,
115,   4.93073e-13,
1008,  -9.43141e-16,
1055,  -4.74459e-13,
1056,  -9.47975e-13,
1098,   1.23133e-12,
1099,  -9.53831e-13,
1100,   9.85122e-13,
1107,   1.68531e-15,
1108,  -9.52015e-16,
1109,   9.25883e-16,
1113,   4.74305e-13,
1114,  -4.76402e-13,
1115,   4.93073e-13,
2056,  -3.91193e-01,
2067,  -3.62185e-01,
2068,  -3.33190e-01,
2098,   3.91373e-01,
2099,   1.43106e-01,
2100,  -8.52749e-02,
2101,  -3.57591e-02,
2102,   1.49236e-01,
2103,   4.57382e-01,
2104,   4.19625e-01,
2105,   1.45999e-01,
2106,  -5.95671e-02,
3056,  -3.91193e-01,
3067,  -3.62185e-01,
3068,  -3.33190e-01,
3098,   3.91373e-01,
3099,   1.43106e-01,
3100,  -8.52749e-02,
3101,  -3.57591e-02,
3102,   1.49236e-01,
3103,   4.57382e-01,
3104,   4.19625e-01,
3105,   1.45999e-01,
3106,  -5.95671e-02,
-1,0.,
1, 33,1,
BMAG-node-3
0.,-1.,0.,
33,0,0,0,0,0,0,0,0,0,
0,0,0,0,0,0,0,0,0,0,
0,0,3,7,
0,1,1,
8,   0.00000e+00,
55,   0.00000e+00,
56,   0.00000e+00,
98,   0.00000e+00,
99,   0.00000e+00,
100,   0.00000e+00,
107,   0.00000e+00,
108,   0.00000e+00,
109,   0.00000e+00,
113,   0.00000e+00,
114,   0.00000e+00,
115,   0.00000e+00,
1008,   0.00000e+00,
1055,   0.00000e+00,
1056,   0.00000e+00,
1098,   0.00000e+00,
1099,   0.00000e+00,
1100,   0.00000e+00,
1107,   0.00000e+00,
1108,   0.00000e+00,
1109,   0.00000e+00,
1113,   0.00000e+00,
1114,   0.00000e+00,
1115,   0.00000e+00,
2056,   0.00000e+00,
2067,   0.00000e+00,
2068,   0.00000e+00,
2098,   0.00000e+00,
2099,   0.00000e+00,
2100,   0.00000e+00,
2101,   0.00000e+00,
2102,   0.00000e+00,
2103,   0.00000e+00,
2104,   0.00000e+00,
2105,   0.00000e+00,
2106,   0.00000e+00,
3056,   0.00000e+00,
3067,   0.00000e+00,
3068,   0.00000e+00,
3098,   0.00000e+00,
3099,   0.00000e+00,
3100,   0.00000e+00,
3101,   0.00000e+00,
3102,   0.00000e+00,
3103,   0.00000e+00,
3104,   0.00000e+00,
3105,   0.00000e+00,
3106,   0.00000e+00,
-1,0.,
1, 34,1,
BMAG-node-4
0.,-1.,0.,
31,32,33,0,0,0,0,0,0,0,
0,0,0,0,0,0,0,0,0,0,
0,0,3,7,
0,1,1,
8,   8.73251e-15,
55,   4.74841e-13,
56,   3.48476e-12,
98,   3.42632e-12,
99,   9.54078e-13,
100,   9.85641e-13,
107,   8.60845e-15,
108,   9.52174e-16,
109,   9.25886e-16,
113,   4.74837e-13,
114,   4.77208e-13,
115,   4.93281e-13,
1008,   8.73251e-15,
1055,   4.74841e-13,
1056,   3.48476e-12,
1098,   3.42632e-12,
1099,   9.54078e-13,
1100,   9.85641e-13,
1107,   8.60845e-15,
1108,   9.52174e-16,
1109,   9.25886e-16,
1113,   4.74837e-13,
1114,   4.77208e-13,
1115,   4.93281e-13,
2056,   3.94777e-01,
2067,   6.12049e-01,
2068,   1.09124e+00,
2098,   3.91485e-01,
2099,   1.50949e-01,
2100,   8.69398e-02,
2101,   9.34275e-01,
2102,   9.34490e-01,
2103,   1.09157e+00,
2104,   6.12136e-01,
2105,   5.04569e-01,
2106,   4.99433e-01,
3056,   3.94777e-01,
3067,   6.12049e-01,
3068,   1.09124e+00,
3098,   3.91485e-01,
3099,   1.50949e-01,
3100,   8.69398e-02,
3101,   9.34275e-01,
3102,   9.34490e-01,
3103,   1.09157e+00,
3104,   6.12136e-01,
3105,   5.04569e-01,
3106,   4.99433e-01,
-1,0.,
1, 35,1,
BMAG-node-5
0.,-1.,0.,
35,0,0,0,0,0,0,0,0,0,
0,0,0,0,0,0,0,0,0,0,
0,0,3,7,
0,1,1,
8,  -6.87196e-19,
55,  -9.22982e-19,
56,  -2.37917e-16,
98,   2.37917e-16,
99,  -2.39283e-16,
100,   2.47341e-16,
107,   6.87196e-19,
108,  -6.78849e-19,
109,   6.99876e-19,
113,   9.22982e-19,
114,  -9.16700e-19,
115,   9.31265e-19,
1008,  -6.87196e-19,
1055,  -9.22982e-19,
1056,  -2.37917e-16,
1098,   2.37917e-16,
1099,  -2.39283e-16,
1100,   2.47341e-16,
1107,   6.87196e-19,
1108,  -6.78849e-19,
1109,   6.99876e-19,
1113,   9.22982e-19,
1114,  -9.16700e-19,
1115,   9.31265e-19,
2056,  -3.77357e-06,
2067,  -1.01325e-04,
2068,  -1.89144e-04,
2098,   3.77357e-06,
2099,   0.00000e+00,
2100,  -1.33012e-05,
2101,  -5.44716e-05,
2102,   5.46583e-05,
2103,   1.89144e-04,
2104,   1.01325e-04,
2105,   3.47724e-05,
2106,  -3.47923e-05,
3056,  -3.77357e-06,
3067,  -1.01325e-04,
3068,  -1.89144e-04,
3098,   3.77357e-06,
3099,   0.00000e+00,
3100,  -1.33012e-05,
3101,  -5.44716e-05,
3102,   5.46583e-05,
3103,   1.89144e-04,
3104,   1.01325e-04,
3105,   3.47724e-05,
3106,  -3.47923e-05,
-1,0.,
   -1
