    -1
   151
<NULL>
<NULL>

<NULL>
<NULL>
EMSolution
Mon May 18 17:37:39 2026
    -1
    -1
    56
ELEMENT - BX, BY, BZ, |B|
Element Data 



         1         4         3         8         2         6
         2         1         3         1
  1.00000e+00
        94         6
  1.02271e-14  7.42185e-16  0.00000e+00  1.02540e-14  0.00000e+00  0.00000e+00
        95         6
 -1.03085e-14 -4.65576e-16  0.00000e+00  1.03190e-14  0.00000e+00  0.00000e+00
        96         6
  1.03628e-14  1.43216e-16  0.00000e+00  1.03637e-14  0.00000e+00  0.00000e+00
        97         6
  1.60199e-12  1.14337e-13  0.00000e+00  1.60607e-12  0.00000e+00  0.00000e+00
        98         6
 -1.63745e-12 -5.61651e-14  0.00000e+00  1.63842e-12  0.00000e+00  0.00000e+00
        99         6
  1.63398e-12  4.29881e-14  0.00000e+00  1.63454e-12  0.00000e+00  0.00000e+00
      1089         6
  2.23022e-01  2.85870e-01  0.00000e+00  3.62574e-01  0.00000e+00  0.00000e+00
      1090         6
  2.90030e-01  4.42162e-02  0.00000e+00  2.93382e-01  0.00000e+00  0.00000e+00
      1091         6
  2.08601e-01 -2.31602e-01  0.00000e+00  3.11695e-01  0.00000e+00  0.00000e+00
      1092         6
  7.25059e-01  2.81699e-01  0.00000e+00  7.77859e-01  0.00000e+00  0.00000e+00
      1093         6
  6.62892e-01  4.06438e-02  0.00000e+00  6.64137e-01  0.00000e+00  0.00000e+00
      1094         6
  7.53980e-01 -1.91171e-01  0.00000e+00  7.77838e-01  0.00000e+00  0.00000e+00
    -1
    -1
    55
NODE - BX, BY, BZ, |B|, FLUX
Node Data



         1         4         3         8         2         6
         2         1         4         1
  1.00000e+00
         8         6
  8.68143e-15 -9.43141e-16  0.00000e+00  8.73251e-15 -6.87196e-19  0.00000e+00
        55         6
  1.90447e-14 -4.74459e-13  0.00000e+00  4.74841e-13 -9.22982e-19  0.00000e+00
        56         6
  3.35334e-12 -9.47975e-13  0.00000e+00  3.48476e-12 -2.37917e-16  0.00000e+00
        98         6
  3.19742e-12  1.23133e-12  0.00000e+00  3.42632e-12  2.37917e-16  0.00000e+00
        99         6
  2.17095e-14 -9.53831e-13  0.00000e+00  9.54078e-13 -2.39283e-16  0.00000e+00
       100         6
 -3.19709e-14  9.85122e-13  0.00000e+00  9.85641e-13  2.47341e-16  0.00000e+00
       107         6
  8.44187e-15  1.68531e-15  0.00000e+00  8.60845e-15  6.87196e-19  0.00000e+00
       108         6
  1.73978e-17 -9.52015e-16  0.00000e+00  9.52174e-16 -6.78849e-19  0.00000e+00
       109         6
 -2.48095e-18  9.25883e-16  0.00000e+00  9.25886e-16  6.99876e-19  0.00000e+00
       113         6
 -2.24752e-14  4.74305e-13  0.00000e+00  4.74837e-13  9.22982e-19  0.00000e+00
       114         6
  2.77200e-14 -4.76402e-13  0.00000e+00  4.77208e-13 -9.16700e-19  0.00000e+00
       115         6
 -1.43260e-14  4.93073e-13  0.00000e+00  4.93281e-13  9.31265e-19  0.00000e+00
      1008         6
  8.68143e-15 -9.43141e-16  0.00000e+00  8.73251e-15 -6.87196e-19  0.00000e+00
      1055         6
  1.90447e-14 -4.74459e-13  0.00000e+00  4.74841e-13 -9.22982e-19  0.00000e+00
      1056         6
  3.35334e-12 -9.47975e-13  0.00000e+00  3.48476e-12 -2.37917e-16  0.00000e+00
      1098         6
  3.19742e-12  1.23133e-12  0.00000e+00  3.42632e-12  2.37917e-16  0.00000e+00
      1099         6
  2.17095e-14 -9.53831e-13  0.00000e+00  9.54078e-13 -2.39283e-16  0.00000e+00
      1100         6
 -3.19709e-14  9.85122e-13  0.00000e+00  9.85641e-13  2.47341e-16  0.00000e+00
      1107         6
  8.44187e-15  1.68531e-15  0.00000e+00  8.60845e-15  6.87196e-19  0.00000e+00
      1108         6
  1.73978e-17 -9.52015e-16  0.00000e+00  9.52174e-16 -6.78849e-19  0.00000e+00
      1109         6
 -2.48095e-18  9.25883e-16  0.00000e+00  9.25886e-16  6.99876e-19  0.00000e+00
      1113         6
 -2.24752e-14  4.74305e-13  0.00000e+00  4.74837e-13  9.22982e-19  0.00000e+00
      1114         6
  2.77200e-14 -4.76402e-13  0.00000e+00  4.77208e-13 -9.16700e-19  0.00000e+00
      1115         6
 -1.43260e-14  4.93073e-13  0.00000e+00  4.93281e-13  9.31265e-19  0.00000e+00
      2056         6
 -5.30788e-02 -3.91193e-01  0.00000e+00  3.94777e-01 -3.77357e-06  0.00000e+00
      2067         6
  4.93382e-01 -3.62185e-01  0.00000e+00  6.12049e-01 -1.01325e-04  0.00000e+00
      2068         6
  1.03913e+00 -3.33190e-01  0.00000e+00  1.09124e+00 -1.89144e-04  0.00000e+00
      2098         6
 -9.35366e-03  3.91373e-01  0.00000e+00  3.91485e-01  3.77357e-06  0.00000e+00
      2099         6
  4.80234e-02  1.43106e-01  0.00000e+00  1.50949e-01  0.00000e+00  0.00000e+00
      2100         6
  1.69327e-02 -8.52749e-02  0.00000e+00  8.69398e-02 -1.33012e-05  0.00000e+00
      2101         6
  9.33591e-01 -3.57591e-02  0.00000e+00  9.34275e-01 -5.44716e-05  0.00000e+00
      2102         6
  9.22497e-01  1.49236e-01  0.00000e+00  9.34490e-01  5.46583e-05  0.00000e+00
      2103         6
  9.91128e-01  4.57382e-01  0.00000e+00  1.09157e+00  1.89144e-04  0.00000e+00
      2104         6
  4.45674e-01  4.19625e-01  0.00000e+00  6.12136e-01  1.01325e-04  0.00000e+00
      2105         6
  4.82985e-01  1.45999e-01  0.00000e+00  5.04569e-01  3.47724e-05  0.00000e+00
      2106         6
  4.95868e-01 -5.95671e-02  0.00000e+00  4.99433e-01 -3.47923e-05  0.00000e+00
      3056         6
 -5.30788e-02 -3.91193e-01  0.00000e+00  3.94777e-01 -3.77357e-06  0.00000e+00
      3067         6
  4.93382e-01 -3.62185e-01  0.00000e+00  6.12049e-01 -1.01325e-04  0.00000e+00
      3068         6
  1.03913e+00 -3.33190e-01  0.00000e+00  1.09124e+00 -1.89144e-04  0.00000e+00
      3098         6
 -9.35366e-03  3.91373e-01  0.00000e+00  3.91485e-01  3.77357e-06  0.00000e+00
      3099         6
  4.80234e-02  1.43106e-01  0.00000e+00  1.50949e-01  0.00000e+00  0.00000e+00
      3100         6
  1.69327e-02 -8.52749e-02  0.00000e+00  8.69398e-02 -1.33012e-05  0.00000e+00
      3101         6
  9.33591e-01 -3.57591e-02  0.00000e+00  9.34275e-01 -5.44716e-05  0.00000e+00
      3102         6
  9.22497e-01  1.49236e-01  0.00000e+00  9.34490e-01  5.46583e-05  0.00000e+00
      3103         6
  9.91128e-01  4.57382e-01  0.00000e+00  1.09157e+00  1.89144e-04  0.00000e+00
      3104         6
  4.45674e-01  4.19625e-01  0.00000e+00  6.12136e-01  1.01325e-04  0.00000e+00
      3105         6
  4.82985e-01  1.45999e-01  0.00000e+00  5.04569e-01  3.47724e-05  0.00000e+00
      3106         6
  4.95868e-01 -5.95671e-02  0.00000e+00  4.99433e-01 -3.47923e-05  0.00000e+00
    -1
