   -1
   100
<NULL>
4.41,
   -1
   -1
   403
8,0,0,1,46,0,0,0,0,0,0,  5.50000e-01,  0.00000e+00,  0.00000e+00,
55,0,0,1,46,0,0,0,0,0,0,  5.25000e-01,  0.00000e+00,  0.00000e+00,
56,0,0,1,46,0,0,0,0,0,0,  5.00000e-01,  0.00000e+00,  0.00000e+00,
98,0,0,1,46,0,0,0,0,0,0,  4.98097e-01,  4.35779e-02,  0.00000e+00,
99,0,0,1,46,0,0,0,0,0,0,  4.99155e-01,  2.90606e-02,  0.00000e+00,
100,0,0,1,46,0,0,0,0,0,0,  4.99789e-01,  1.45306e-02,  0.00000e+00,
107,0,0,1,46,0,0,0,0,0,0,  5.47907e-01,  4.79357e-02,  0.00000e+00,
108,0,0,1,46,0,0,0,0,0,0,  5.49069e-01,  3.19859e-02,  0.00000e+00,
109,0,0,1,46,0,0,0,0,0,0,  5.49767e-01,  1.60028e-02,  0.00000e+00,
113,0,0,1,46,0,0,0,0,0,0,  5.23002e-01,  4.57568e-02,  0.00000e+00,
114,0,0,1,46,0,0,0,0,0,0,  5.24112e-01,  3.05260e-02,  0.00000e+00,
115,0,0,1,46,0,0,0,0,0,0,  5.24778e-01,  1.52695e-02,  0.00000e+00,
1008,0,0,1,46,0,0,0,0,0,0,  5.50000e-01,  0.00000e+00,  1.00000e-02,
1055,0,0,1,46,0,0,0,0,0,0,  5.25000e-01,  0.00000e+00,  1.00000e-02,
1056,0,0,1,46,0,0,0,0,0,0,  5.00000e-01,  0.00000e+00,  1.00000e-02,
1098,0,0,1,46,0,0,0,0,0,0,  4.98097e-01,  4.35779e-02,  1.00000e-02,
1099,0,0,1,46,0,0,0,0,0,0,  4.99155e-01,  2.90606e-02,  1.00000e-02,
1100,0,0,1,46,0,0,0,0,0,0,  4.99789e-01,  1.45306e-02,  1.00000e-02,
1107,0,0,1,46,0,0,0,0,0,0,  5.47907e-01,  4.79357e-02,  1.00000e-02,
1108,0,0,1,46,0,0,0,0,0,0,  5.49069e-01,  3.19859e-02,  1.00000e-02,
1109,0,0,1,46,0,0,0,0,0,0,  5.49767e-01,  1.60028e-02,  1.00000e-02,
1113,0,0,1,46,0,0,0,0,0,0,  5.23002e-01,  4.57568e-02,  1.00000e-02,
1114,0,0,1,46,0,0,0,0,0,0,  5.24112e-01,  3.05260e-02,  1.00000e-02,
1115,0,0,1,46,0,0,0,0,0,0,  5.24778e-01,  1.52695e-02,  1.00000e-02,
   -1
   -1
   404
94,124,1,25,8,1,0,0,
107,113,114,108,1107,1113,1114,1108,0,0,
0,0,0,0,0,0,0,0,0,0,
0.,0.,0.,
0.,0.,0.,
0.,0.,0.,
0,0,0,0,0,0,0,0,0,0,0,0,0,0,0,0,
95,124,1,25,8,1,0,0,
108,114,115,109,1108,1114,1115,1109,0,0,
0,0,0,0,0,0,0,0,0,0,
0.,0.,0.,
0.,0.,0.,
0.,0.,0.,
0,0,0,0,0,0,0,0,0,0,0,0,0,0,0,0,
96,124,1,25,8,1,0,0,
109,115,55,8,1109,1115,1055,1008,0,0,
0,0,0,0,0,0,0,0,0,0,
0.,0.,0.,
0.,0.,0.,
0.,0.,0.,
0,0,0,0,0,0,0,0,0,0,0,0,0,0,0,0,
97,124,2,25,8,1,0,0,
113,98,99,114,1113,1098,1099,1114,0,0,
0,0,0,0,0,0,0,0,0,0,
0.,0.,0.,
0.,0.,0.,
0.,0.,0.,
0,0,0,0,0,0,0,0,0,0,0,0,0,0,0,0,
98,124,2,25,8,1,0,0,
114,99,100,115,1114,1099,1100,1115,0,0,
0,0,0,0,0,0,0,0,0,0,
0.,0.,0.,
0.,0.,0.,
0.,0.,0.,
0,0,0,0,0,0,0,0,0,0,0,0,0,0,0,0,
99,124,2,25,8,1,0,0,
115,100,56,55,1115,1100,1056,1055,0,0,
0,0,0,0,0,0,0,0,0,0,
0.,0.,0.,
0.,0.,0.,
0.,0.,0.,
0,0,0,0,0,0,0,0,0,0,0,0,0,0,0,0,
   -1
   -1
   403
2056,0,0,1,46,0,0,0,0,0,0,  5.00000e-01,  0.00000e+00,  0.00000e+00,
2067,0,0,1,46,0,0,0,0,0,0,  4.75000e-01,  0.00000e+00,  0.00000e+00,
2068,0,0,1,46,0,0,0,0,0,0,  4.50000e-01,  0.00000e+00,  0.00000e+00,
2098,0,0,1,46,0,0,0,0,0,0,  4.98097e-01,  4.35779e-02,  0.00000e+00,
2099,0,0,1,46,0,0,0,0,0,0,  4.99155e-01,  2.90606e-02,  0.00000e+00,
2100,0,0,1,46,0,0,0,0,0,0,  4.99789e-01,  1.45306e-02,  0.00000e+00,
2101,0,0,1,46,0,0,0,0,0,0,  4.49809e-01,  1.30999e-02,  0.00000e+00,
2102,0,0,1,46,0,0,0,0,0,0,  4.49240e-01,  2.61771e-02,  0.00000e+00,
2103,0,0,1,46,0,0,0,0,0,0,  4.48288e-01,  3.92201e-02,  0.00000e+00,
2104,0,0,1,46,0,0,0,0,0,0,  4.73192e-01,  4.13990e-02,  0.00000e+00,
2105,0,0,1,46,0,0,0,0,0,0,  4.74197e-01,  2.76188e-02,  0.00000e+00,
2106,0,0,1,46,0,0,0,0,0,0,  4.74799e-01,  1.38152e-02,  0.00000e+00,
3056,0,0,1,46,0,0,0,0,0,0,  5.00000e-01,  0.00000e+00,  1.00000e-02,
3067,0,0,1,46,0,0,0,0,0,0,  4.75000e-01,  0.00000e+00,  1.00000e-02,
3068,0,0,1,46,0,0,0,0,0,0,  4.50000e-01,  0.00000e+00,  1.00000e-02,
3098,0,0,1,46,0,0,0,0,0,0,  4.98097e-01,  4.35779e-02,  1.00000e-02,
3099,0,0,1,46,0,0,0,0,0,0,  4.99155e-01,  2.90606e-02,  1.00000e-02,
3100,0,0,1,46,0,0,0,0,0,0,  4.99789e-01,  1.45306e-02,  1.00000e-02,
3101,0,0,1,46,0,0,0,0,0,0,  4.49809e-01,  1.30999e-02,  1.00000e-02,
3102,0,0,1,46,0,0,0,0,0,0,  4.49240e-01,  2.61771e-02,  1.00000e-02,
3103,0,0,1,46,0,0,0,0,0,0,  4.48288e-01,  3.92201e-02,  1.00000e-02,
3104,0,0,1,46,0,0,0,0,0,0,  4.73192e-01,  4.13990e-02,  1.00000e-02,
3105,0,0,1,46,0,0,0,0,0,0,  4.74197e-01,  2.76188e-02,  1.00000e-02,
3106,0,0,1,46,0,0,0,0,0,0,  4.74799e-01,  1.38152e-02,  1.00000e-02,
   -1
   -1
   404
1089,124,3,25,8,1,0,0,
2098,2104,2105,2099,3098,3104,3105,3099,0,0,
0,0,0,0,0,0,0,0,0,0,
0.,0.,0.,
0.,0.,0.,
0.,0.,0.,
0,0,0,0,0,0,0,0,0,0,0,0,0,0,0,0,
1090,124,3,25,8,1,0,0,
2099,2105,2106,2100,3099,3105,3106,3100,0,0,
0,0,0,0,0,0,0,0,0,0,
0.,0.,0.,
0.,0.,0.,
0.,0.,0.,
0,0,0,0,0,0,0,0,0,0,0,0,0,0,0,0,
1091,124,3,25,8,1,0,0,
2100,2106,2067,2056,3100,3106,3067,3056,0,0,
0,0,0,0,0,0,0,0,0,0,
0.,0.,0.,
0.,0.,0.,
0.,0.,0.,
0,0,0,0,0,0,0,0,0,0,0,0,0,0,0,0,
1092,124,4,25,8,1,0,0,
2104,2103,2102,2105,3104,3103,3102,3105,0,0,
0,0,0,0,0,0,0,0,0,0,
0.,0.,0.,
0.,0.,0.,
0.,0.,0.,
0,0,0,0,0,0,0,0,0,0,0,0,0,0,0,0,
1093,124,4,25,8,1,0,0,
2105,2102,2101,2106,3105,3102,3101,3106,0,0,
0,0,0,0,0,0,0,0,0,0,
0.,0.,0.,
0.,0.,0.,
0.,0.,0.,
0,0,0,0,0,0,0,0,0,0,0,0,0,0,0,0,
1094,124,4,25,8,1,0,0,
2106,2101,2068,2067,3106,3101,3068,3067,0,0,
0,0,0,0,0,0,0,0,0,0,
0.,0.,0.,
0.,0.,0.,
0.,0.,0.,
0,0,0,0,0,0,0,0,0,0,0,0,0,0,0,0,
   -1
   -1
   601
1,-601,55,0,0,1,0,
<NULL>
10,
0,0,0,0,0,0,0,0,0,0,
25,
0,0,0,0,0,0,0,0,0,0,
0,0,0,0,0,0,0,0,0,0,
0,0,0,0,0,
200,
0.,0.,0.,0.,0.,0.,0.,0.,0.,0.,
0.,0.,0.,0.,0.,0.,0.,0.,0.,0.,
0.,0.,0.,0.,0.,0.,0.,0.,0.,0.,
0.,0.,0.,0.,0.,0.,0.,0.,0.,0.,
0.,0.,0.,0.,0.,0.,0.,0.,0.,0.,
0.,0.,0.,0.,0.,0.,0.,0.,0.,0.,
0.,0.,0.,0.,0.,0.,0.,0.,0.,0.,
0.,0.,0.,0.,0.,0.,0.,0.,0.,0.,
0.,0.,0.,0.,0.,0.,0.,0.,0.,0.,
0.,0.,0.,0.,0.,0.,0.,0.,0.,0.,
0.,0.,0.,0.,0.,0.,0.,0.,0.,0.,
0.,0.,0.,0.,0.,0.,0.,0.,0.,0.,
0.,0.,0.,0.,0.,0.,0.,0.,0.,0.,
0.,0.,0.,0.,0.,0.,0.,0.,0.,0.,
0.,0.,0.,0.,0.,0.,0.,0.,0.,0.,
0.,0.,0.,0.,0.,0.,0.,0.,0.,0.,
0.,0.,0.,0.,0.,0.,0.,0.,0.,0.,
0.,0.,0.,0.,0.,0.,0.,0.,0.,0.,
0.,0.,0.,0.,0.,0.,0.,0.,0.,0.,
0.,0.,0.,0.,0.,0.,0.,0.,0.,0.,,
50,
0,0,0,0,0,0,0,0,0,0,
0,0,0,0,0,0,0,0,0,0,
0,0,0,0,0,0,0,0,0,0,
0,0,0,0,0,0,0,0,0,0,
0,0,0,0,0,0,0,0,0,0,
70,
0,0,0,0,0,0,0,0,0,0,
0,0,0,0,0,0,0,0,0,0,
0,0,0,0,0,0,0,0,0,0,
0,0,0,0,0,0,0,0,0,0,
0,0,0,0,0,0,0,0,0,0,
0,0,0,0,0,0,0,0,0,0,
0,0,0,0,0,0,0,0,0,0,
   -1
   -1
   402
1,24,1,25,1,0,
Solid
0,0,0,0,
8,
0,0,0,0,0,0,0,0,
5,
0.,0.,0.,0.,0.,
2,24,1,25,1,0,
Solid
0,0,0,0,
8,
0,0,0,0,0,0,0,0,
5,
0.,0.,0.,0.,0.,
3,24,1,25,1,0,
Solid
0,0,0,0,
8,
0,0,0,0,0,0,0,0,
5,
0.,0.,0.,0.,0.,
4,24,1,25,1,0,
Solid
0,0,0,0,
8,
0,0,0,0,0,0,0,0,
5,
0.,0.,0.,0.,0.,
   -1
