    -1
   151
<NULL>
<NULL>

<NULL>
<NULL>
EMSolution
Mon May 18 17:37:39 2026
    -1
    -1
  2411
         8         0         0        15
       5.500000000000e-01       0.000000000000e+00       0.000000000000e+00
        55         0         0        15
       5.250000000000e-01       0.000000000000e+00       0.000000000000e+00
        56         0         0        15
       5.000000000000e-01       0.000000000000e+00       0.000000000000e+00
        98         0         0        15
       4.980973490459e-01       4.357787137383e-02       0.000000000000e+00
        99         0         0        15
       4.991548000000e-01       2.906057000000e-02       0.000000000000e+00
       100         0         0        15
       4.997888000000e-01       1.453056000000e-02       0.000000000000e+00
       107         0         0        15
       5.479070839505e-01       4.793565851121e-02       0.000000000000e+00
       108         0         0        15
       5.490691000000e-01       3.198586000000e-02       0.000000000000e+00
       109         0         0        15
       5.497671000000e-01       1.600277000000e-02       0.000000000000e+00
       113         0         0        15
       5.230022164982e-01       4.575676494252e-02       0.000000000000e+00
       114         0         0        15
       5.241118000000e-01       3.052604000000e-02       0.000000000000e+00
       115         0         0        15
       5.247779000000e-01       1.526948000000e-02       0.000000000000e+00
      1008         0         0        15
       5.500000000000e-01       0.000000000000e+00       1.000000000000e-02
      1055         0         0        15
       5.250000000000e-01       0.000000000000e+00       1.000000000000e-02
      1056         0         0        15
       5.000000000000e-01       0.000000000000e+00       1.000000000000e-02
      1098         0         0        15
       4.980973490459e-01       4.357787137383e-02       1.000000000000e-02
      1099         0         0        15
       4.991548000000e-01       2.906057000000e-02       1.000000000000e-02
      1100         0         0        15
       4.997888000000e-01       1.453056000000e-02       1.000000000000e-02
      1107         0         0        15
       5.479070839505e-01       4.793565851121e-02       1.000000000000e-02
      1108         0         0        15
       5.490691000000e-01       3.198586000000e-02       1.000000000000e-02
      1109         0         0        15
       5.497671000000e-01       1.600277000000e-02       1.000000000000e-02
      1113         0         0        15
       5.230022164982e-01       4.575676494252e-02       1.000000000000e-02
      1114         0         0        15
       5.241118000000e-01       3.052604000000e-02       1.000000000000e-02
      1115         0         0        15
       5.247779000000e-01       1.526948000000e-02       1.000000000000e-02
    -1
    -1
  2412
        94       115         1         1        15         8
       107       113       114       108      1107      1113      1114      1108
        95       115         1         1        15         8
       108       114       115       109      1108      1114      1115      1109
        96       115         1         1        15         8
       109       115        55         8      1109      1115      1055      1008
        97       115         2         2        15         8
       113        98        99       114      1113      1098      1099      1114
        98       115         2         2        15         8
       114        99       100       115      1114      1099      1100      1115
        99       115         2         2        15         8
       115       100        56        55      1115      1100      1056      1055
    -1
    -1
  2411
      2056         0         0        15
       5.000000000000e-01       0.000000000000e+00       0.000000000000e+00
      2067         0         0        15
       4.750000000000e-01       0.000000000000e+00       0.000000000000e+00
      2068         0         0        15
       4.500000000000e-01       0.000000000000e+00       0.000000000000e+00
      2098         0         0        15
       4.980973490459e-01       4.357787137383e-02       0.000000000000e+00
      2099         0         0        15
       4.991548000000e-01       2.906057000000e-02       0.000000000000e+00
      2100         0         0        15
       4.997888000000e-01       1.453056000000e-02       0.000000000000e+00
      2101         0         0        15
       4.498093000000e-01       1.309989000000e-02       0.000000000000e+00
      2102         0         0        15
       4.492402000000e-01       2.617710000000e-02       0.000000000000e+00
      2103         0         0        15
       4.482876141413e-01       3.922008423645e-02       0.000000000000e+00
      2104         0         0        15
       4.731924815936e-01       4.139897780514e-02       0.000000000000e+00
      2105         0         0        15
       4.741975000000e-01       2.761884000000e-02       0.000000000000e+00
      2106         0         0        15
       4.747990000000e-01       1.381523000000e-02       0.000000000000e+00
      3056         0         0        15
       5.000000000000e-01       0.000000000000e+00       1.000000000000e-02
      3067         0         0        15
       4.750000000000e-01       0.000000000000e+00       1.000000000000e-02
      3068         0         0        15
       4.500000000000e-01       0.000000000000e+00       1.000000000000e-02
      3098         0         0        15
       4.980973490459e-01       4.357787137383e-02       1.000000000000e-02
      3099         0         0        15
       4.991548000000e-01       2.906057000000e-02       1.000000000000e-02
      3100         0         0        15
       4.997888000000e-01       1.453056000000e-02       1.000000000000e-02
      3101         0         0        15
       4.498093000000e-01       1.309989000000e-02       1.000000000000e-02
      3102         0         0        15
       4.492402000000e-01       2.617710000000e-02       1.000000000000e-02
      3103         0         0        15
       4.482876141413e-01       3.922008423645e-02       1.000000000000e-02
      3104         0         0        15
       4.731924815936e-01       4.139897780514e-02       1.000000000000e-02
      3105         0         0        15
       4.741975000000e-01       2.761884000000e-02       1.000000000000e-02
      3106         0         0        15
       4.747990000000e-01       1.381523000000e-02       1.000000000000e-02
    -1
    -1
  2412
      1089       115         3         3        15         8
      2098      2104      2105      2099      3098      3104      3105      3099
      1090       115         3         3        15         8
      2099      2105      2106      2100      3099      3105      3106      3100
      1091       115         3         3        15         8
      2100      2106      2067      2056      3100      3106      3067      3056
      1092       115         4         4        15         8
      2104      2103      2102      2105      3104      3103      3102      3105
      1093       115         4         4        15         8
      2105      2102      2101      2106      3105      3102      3101      3106
      1094       115         4         4        15         8
      2106      2101      2068      2067      3106      3101      3068      3067
    -1
